<?xml version="1.0" encoding="UTF-8"?>
<!DOCTYPE svg PUBLIC "-//W3C//DTD SVG 1.1//EN" "http://www.w3.org/Graphics/SVG/1.1/DTD/svg11.dtd">
<!-- Creator: CorelDRAW (Evaluation Version) -->
<svg xmlns="http://www.w3.org/2000/svg" xml:space="preserve" version="1.1" style="shape-rendering:geometricPrecision; text-rendering:geometricPrecision; image-rendering:optimizeQuality; fill-rule:evenodd; clip-rule:evenodd"
viewBox="0 0 1364.17 1364.01"
 xmlns:xlink="http://www.w3.org/1999/xlink"
 xmlns:xodm="http://www.corel.com/coreldraw/odm/2003">
 <defs>
  <style type="text/css">
   <![CDATA[
    .fil1 {fill:#449BEE}
    .fil2 {fill:#71E161}
    .fil4 {fill:#A4626C}
    .fil3 {fill:#DB0000}
    .fil0 {fill:#FFE656}
   ]]>
  </style>
 </defs>
 <g id="Layer_x0020_1">
  <metadata id="CorelCorpID_0Corel-Layer"/>
  <g id="_105553222375360">
   <path class="fil0" d="M1279.12 658.4c-0.03,3.34 3.96,4.1 10.08,8.12 8.48,5.56 22.48,17.04 28.61,24.79 15.28,19.32 8.71,47.91 0.94,53.77 5.04,10.63 11.7,19.69 7.36,37.54 -5.07,20.83 -28.75,37.64 -46.2,47.99 -5.42,3.21 -9.51,5.33 -15.42,8.17 -2.84,1.37 -14.61,5.65 -16.07,7.35l0.03 0.69c-1.23,9.53 -6.83,20.51 -9.59,30.11l-4.68 13.35c-1.3,2.87 -2.2,5.45 -3.44,8.35l-12.37 29.24c-3.13,8.35 -8.28,16.08 -11.8,24.26 -0.89,2.07 -1.13,2.04 -2.2,4.04l-4.23 8.25c-6.68,11.23 -12.78,22.57 -19.86,33.54l-9.57 14.71c-1.18,1.6 -1.34,2.01 -2.49,3.75 -10.19,15.44 -21.92,30.37 -33.88,44.49 -1.19,1.4 -1.76,1.73 -2.97,3.28 -2.08,2.68 -3.36,3.67 -5.44,6.35 -11.3,14.52 -42.09,43.68 -54.32,54.55l-6.41 5.38c-10.91,8.36 -20.5,17.29 -33.58,26.75 -14.13,10.22 -28.53,19.42 -43.12,29.01l-38.82 21.52c-7.75,4.64 -16.23,7.62 -24.34,11.72l-29.68 12.62c-2.39,0.84 -2.62,0.84 -4.55,1.69 -7.78,3.43 -32.56,11.66 -40.03,13.37l-14.46 4.26c-6.98,2.37 -21.05,5.64 -28.51,6.86 -3.42,0.56 -7.01,1.9 -10.09,2.39l-20.13 3.45c-7.44,1.08 -13.89,2.31 -21.32,2.96 -3.09,0.27 -8.09,0.67 -10.53,1.26 -7.16,1.71 -15.08,0.72 -22.44,1.83 -6.68,1.01 -26.85,1.79 -34.27,1.79 -6.95,-0 -17.58,0.68 -23.98,-0.29 -14.58,-2.21 -31.15,-0.02 -45.56,-2.98 -7.03,-1.44 -14.09,-1.29 -21.03,-2.55l-30.77 -5.29c-6.55,-0.88 -13.15,-2.86 -19.75,-4.52l-65.58 -19.03c-17.3,-6.38 -34.18,-13.5 -50.85,-21.27 -24.11,-11.24 -47.22,-24.04 -69.53,-38.66 -2.7,-1.77 -4.96,-3.13 -7.7,-4.78l-61.06 -47.12c-2.4,-2.13 -4.76,-3.49 -6.42,-6.13 -14.06,-4.32 -25.58,-16.26 -30.43,-29.75l-0.78 -0.69 -8.81 -8.53c-1.29,-1.55 -1.29,-1.9 -2.8,-3.44 -2.1,-2.16 -3.5,-4.03 -5.55,-6.23l-47.1 -61.08 -39.29 -68.21 -11.33 -24.73c-1.33,-2.83 -2.37,-5.32 -3.44,-8.35l-21.79 -62.15c-1.16,-1.57 -18.14,-8.5 -21.64,-10.22 -7.34,-3.61 -14.08,-7.96 -20.27,-12.36 -27.73,-19.73 -43.26,-40 -58.42,-70.59 -3.11,-6.27 -6.74,-16.54 -8.68,-23.8 -1.17,-4.39 -2.22,-8.61 -3.11,-12.83l-2.7 -13.33c-0.05,-0.14 -0.15,-0.36 -0.26,-0.53 0,13.26 0.49,26.46 2.48,39.93l10.29 74.31 17.14 67.46c3.71,10.24 7.03,20.91 10.73,31.57l25.3 60c0.59,1.41 0.64,1.88 1.46,3.4l10.77 21.13c0.88,1.83 1.07,1.6 2.03,3.52 7.94,15.77 27.21,47.56 35.6,59.41l17.52 24.78c9.87,13.88 22.24,28.01 33.2,41.01l41.5 43.8 27.58 25.13c2.17,1.93 3.42,2.78 5.55,4.85 9.55,9.3 36.79,29.29 47.75,36.85l93.15 55.26 21.79 10.11c11.57,5.37 33.64,14.79 45.37,18.43 12.08,3.75 22.78,8.06 35.54,11.61l81.23 19.32c3.55,0.5 6.39,0.74 9.52,1.58l37.53 4.78c13.28,0.34 25.4,2.79 39.54,2.77 14.75,-0.02 27.75,1.19 41.65,0.04 6.16,-0.51 14.4,-0 20.79,-0.01l94.59 -11.51c9,-1.29 17.04,-3.87 25.65,-5.56 3.82,-0.75 5.71,-0.9 9.18,-1.92 3.01,-0.88 5.45,-1.16 8.43,-1.97 2.59,-0.7 4.8,-1.56 8.04,-2.36 3.32,-0.82 5.08,-1.59 8.03,-2.37 5.4,-1.41 11.61,-2.72 16.76,-4.74 10.27,-4.03 21.29,-6.8 31.71,-10.6l44.96 -18.84c9.88,-4.25 19.31,-8.55 28.59,-13.71l14.2 -7.3c7.03,-3.11 13.5,-7.92 20.28,-11.62l51.47 -33.14c17.96,-13.49 36.53,-26.66 52.96,-42.04 1.31,-1.22 1.49,-1.16 2.71,-2.15l56.47 -55.87c3.19,-4.12 6.43,-7.14 9.6,-11.2 3.34,-4.27 6.54,-7.38 9.95,-11.55 6.48,-7.95 12.18,-15.59 18.58,-23.72 9.34,-11.85 17.73,-24.54 25.91,-37.19 1.47,-2.27 2.58,-3.94 4.07,-6.33 1.49,-2.38 2.82,-4.46 4.39,-6.71 5.75,-8.24 18.26,-30.77 23.03,-40.08 6.14,-11.98 12.3,-23.49 17.49,-35.91l21.6 -52.61c1.15,-2.87 1.46,-4.95 2.57,-7.84 6.43,-16.8 15.63,-47.98 19.07,-65.53 1.77,-9.02 4.42,-17.09 5.64,-26.26l4.93 -26.97c2.31,-13.74 6.83,-53.33 6.85,-67.36 0.02,-14.5 0.67,-27.26 0.67,-42.17 -2.67,-4.63 -4.76,-30.96 -35.08,-38.6 -23.2,-5.85 -41.95,7.58 -49.9,20.63z"/>
   <path class="fil1" d="M0.69 662.88c0.6,-1.04 4.7,-22.31 5.67,-26.1 1.97,-7.74 5.32,-17.33 8.44,-24.12 7.67,-16.66 15.22,-28.12 24.78,-40.43 16.44,-21.15 40.33,-37.69 64.92,-48.76 3.96,-1.79 9.29,-2.73 11.34,-5.37 0.75,-1.61 1.09,-3.76 1.64,-5.97l4.66 -14.07c0.46,-1.23 0.44,-1.61 0.91,-3.25 0.75,-2.62 1.28,-3.07 2.05,-5.58l6.25 -17.32c3.75,-10.99 8.19,-22.13 13.37,-32.4l10.04 -21.17c5.62,-13.06 15.04,-27.31 21.85,-39.87l31.16 -46.51c1.36,-1.9 1.78,-2.66 3.22,-4.41 1.24,-1.5 2.23,-2.75 3.4,-4.23 2.44,-3.06 4.49,-5.88 7.01,-8.94l3.93 -5.09c0.3,-0.37 0.57,-0.73 0.91,-1.17l16.31 -19.06c5.85,-6.02 20.75,-22.78 26.37,-27.72l40.98 -36.7c1.76,-1.37 2.99,-2.01 4.81,-3.52l54.34 -38.58c10.7,-7.44 22.59,-13.7 34.1,-20 11.76,-6.43 24.07,-12.07 36.31,-17.78 1.91,-0.89 3.38,-1.46 5.27,-2.36l5.77 -2.55c1.42,-0.61 1.36,-0.72 2.27,-1.2 6.6,-3.41 34.44,-13.7 42.41,-15.85 6.08,-1.64 11.24,-4.09 17.34,-5.55 14.44,-3.46 27.46,-8.13 43.51,-11.27l66.79 -10.89c19.7,-1.38 38.87,-2.81 59.61,-2.81 21.05,0 39.05,1.93 58.96,2.77l53.6 8.12c10.08,1.41 33.5,6.9 43.21,10.19 6.15,2.09 12.47,2.91 18.5,5.08 2.11,0.76 3.26,1.29 5.65,1.98l34.84 12.31c8.91,4.01 18.07,7.09 26.82,11.33 8.81,4.26 17.93,7.87 26.15,12.69 1.75,1.02 3.7,1.9 5.51,2.81 15.05,7.52 44.36,24.3 58.16,34.77l35.86 26.55c5.95,4.68 11.01,8.94 16.74,13.78l18.3 16.37c8.52,7.18 29.67,29.05 36.76,37.45l1.58 1.89c5.38,6.22 11.05,12.05 16,18.67 6.72,8.99 14.22,17.28 20.6,26.56l12.8 18.4c13.97,20.92 31.54,50.69 42.34,74.16 0.98,2.13 1.43,3.28 2.41,5.22 0.97,1.91 1.2,3.32 2.27,5.36l7.95 18.4c0.74,1.85 0.69,1.35 1.33,2.83l10.45 28.39c0.81,2.43 1.44,3.45 2.17,6.15l7.49 23.58c1.68,2.23 2.39,1.7 6.54,3.23 18.77,6.92 27.81,14.88 42.67,24.36l5.34 4.01c0.56,0.49 0.84,0.77 1.42,1.29 2.77,2.46 3.28,2.73 5.81,5.32 1.37,1.4 2.07,1.61 3.31,2.93 2.43,2.61 5.66,6.34 7.22,9.83 9.68,17.73 7.8,36.15 -3.15,50.64 -4.47,5.91 -10.77,11.26 -18.66,14.57 -11.23,4.71 -16.61,3.53 -28.87,2.6 0,5.15 0.01,14.24 1.18,18.52l5.74 3.94c0.94,-0.51 0.97,-0.39 1.71,-0.95 7.96,-13.05 26.7,-26.47 49.9,-20.63 30.32,7.64 32.41,33.97 35.08,38.6 0,-3.46 0.13,-7.15 0.02,-10.58 -0.11,-3.69 -0.75,-5.22 -0.72,-9.68 0.02,-3.47 0.04,-6.96 0.03,-10.44l-1.44 -19.37c-0.63,-9.36 -1.43,-19.29 -3.05,-28.85 -1.04,-6.12 -1.35,-12.96 -2.26,-18.54 -2.38,-14.51 -4.95,-29.89 -8.38,-44.33l-4.18 -17.31c-0.82,-2.98 -1.06,-5.44 -1.96,-8.44 -6.17,-20.41 -14.58,-52.22 -23.38,-71.63 -1.27,-2.81 -1.92,-5.23 -3.11,-7.98l-9.22 -21.99c-0.51,-1.16 -0.94,-2.46 -1.66,-3.89l-21.47 -43.72c-0.42,-0.83 -0.48,-1.12 -0.87,-1.9 -2.37,-4.73 -5.36,-9.13 -7.81,-13.69 -1.34,-2.5 -2.35,-3.79 -3.83,-6.58 -4.18,-7.92 -9.31,-15.22 -13.98,-22.77l-23.71 -34.54c-7.66,-10.21 -19.67,-27.59 -28.01,-35.79 -4.34,-4.27 -7.97,-9.29 -11.82,-13.84 -8.96,-10.59 -18.79,-20.56 -28.44,-30.51l-16.71 -15.89c-0.1,-0.1 -0.25,-0.24 -0.36,-0.34l-4.41 -3.91c-14.15,-14.17 -30.22,-26.31 -45.99,-38.62l-11.79 -9.02c-2.22,-1.61 -3.89,-2.74 -6.04,-4.36 -20.4,-15.4 -42.64,-28.69 -64.86,-41.25l-13.35 -7.46c-1.5,-0.77 -2.17,-0.8 -3.83,-1.72 -27.18,-15.03 -48.77,-22.59 -76.08,-34.18l-56.06 -18.15c-8.27,-2.67 -16.35,-5.01 -25.27,-6.63 -8.8,-1.59 -16.79,-4.24 -25.55,-5.66l-27.18 -4.72c-11.24,-2.5 -44.79,-4.8 -57.33,-6.47 -3.36,-0.45 -6.42,-0.08 -9.81,-0.59 -6.53,-0.99 -13.88,-0.32 -20.52,-0.29 -4.64,0.02 -6.6,-0.61 -10.37,-0.72 -3.4,-0.1 -7,0.04 -10.43,0.02 -4.41,-0.02 -6.26,0.52 -9.7,0.7 -6.64,0.36 -14.09,-0.11 -20.84,-0.03 -4.01,0.05 -5.22,0.73 -9.69,0.71l-19.12 1.69c-3.43,0.5 -6.87,0.3 -10.31,0.79l-27.75 3.46c-4.27,0.6 -5.6,1.25 -9.34,1.75 -12.18,1.66 -23.78,4.21 -35.73,6.58l-33.96 8.34c-3.66,0.81 -4.62,1.69 -7.97,2.43 -14.6,3.23 -37.23,11.19 -51.68,16.98 -1.63,0.65 -2.56,0.83 -4.07,1.47l-14.92 5.88c-1.62,0.7 -1.07,0.68 -3.33,1.52l-15.09 6.41c-10.48,3.99 -28,13.4 -38.81,18.75 -16.23,8.04 -31.82,17.58 -47.15,27.05l-19.29 12.61c-12.08,8.92 -24.87,17.1 -36.5,26.61 -7.83,6.41 -15.81,12.16 -23.21,19.09l-11.63 9.87c-7.83,6 -14.56,13.82 -21.83,20.47 -3.96,3.62 -6.85,6.5 -10.59,10.21 -1,1 -1.47,1.46 -2.35,2.51l-7.7 8.25c-1.9,1.9 -3.3,3.31 -5.21,5.2 -8.31,8.22 -21.93,25.22 -29.13,33.97 -6.11,7.42 -13.39,15.85 -18.58,23.73l-17.52 24.78c-1.61,2.36 -2.79,4.54 -4.29,6.81 -9.24,14.01 -15.38,25.47 -23.86,39.25l-3.9 6.51c-0.71,1.29 -1.38,2.42 -1.94,3.61l-8.91 17.44c-6.29,11.67 -11.45,23.78 -16.87,35.84l-6.34 15.16c-4.6,12.77 -10.48,25.61 -14.19,38.51l-7.61 24.29c-3.31,8.81 -13.22,50.41 -14.78,59.42 -1.64,9.47 -5.36,27.6 -6.21,36.09 -0.71,7.01 -1.34,12.2 -2.24,18.57 -0.85,6.06 -1.07,13.7 -1.84,19.65 -1.74,13.38 -2.27,26.52 -2.27,39.87z"/>
   <path class="fil2" d="M92.24 685.23c0,-18.1 3.8,-35.13 14.76,-49.74 4.42,-5.89 4.78,-6.89 10.62,-12.26 5.83,-5.36 8.17,-7.09 15.14,-11.21 2.18,-1.29 3.98,-2.36 6.33,-3.37 23.72,-10.16 51.71,-10.37 73.88,3.01 1.25,0.75 1.22,0.96 2.94,1.91l8.58 5.99c6.19,5.3 9.26,8.42 14.48,15.34 3.1,4.11 4.74,7.68 7.13,12.29 2.17,4.18 3.9,9.03 5.13,14.29 0.59,2.54 1.5,4.63 1.86,7.85 1.34,12.19 1.22,21 -1.73,32.86 -1.32,5.33 -2.77,10.16 -5.01,14.41 -2.5,4.74 -4.12,8.24 -7.08,12.33l-8.82 10.59c-1.87,1.79 -3.23,2.62 -5.23,4.48 -1.7,1.59 -3.61,2.85 -5.46,4.24l-9 5.56c-1.79,0.85 -1.5,0.83 -3.21,1.64 -15.27,7.23 -36.58,9.72 -53.6,5.39 -7.28,-1.85 -8.16,-2.51 -14.35,-5.07 -7.72,-3.21 -17.58,-10.09 -23.51,-16.02l-8.78 -10.64c-5.11,-7.14 -10.47,-17.33 -12.59,-26.25l-2.48 -17.63zm23.6 -167.13c-2.05,2.65 -7.37,3.59 -11.34,5.37 -24.58,11.07 -48.48,27.61 -64.92,48.76 -9.56,12.31 -17.11,23.77 -24.78,40.43 -3.12,6.79 -6.47,16.37 -8.44,24.12 -0.97,3.79 -5.06,25.06 -5.67,26.1 0,7.18 -0.69,12.07 -0.69,19.58 -0,7.6 0.69,12.5 0.69,20 0.11,0.16 0.21,0.39 0.26,0.53l2.7 13.33c0.89,4.22 1.94,8.44 3.11,12.83 1.93,7.26 5.57,17.53 8.68,23.8 15.17,30.59 30.69,50.87 58.42,70.59 6.19,4.41 12.94,8.75 20.27,12.36 3.5,1.72 20.48,8.66 21.64,10.22 2.19,0.05 17.71,5.23 25.03,6.21 15.91,2.14 29.86,4.77 48.72,2.32 6.62,-0.86 11.62,-1.52 18.13,-2.67 5.33,-0.94 19.2,-4.83 24.19,-7.01 2.84,-1.25 4.77,-1.36 7.63,-2.77l14.33 -6.48 0 223.31c0,10.47 -0.57,12.29 0.79,22.79 0.39,3.05 1.29,3.03 1.29,7.03l0.78 0.69c4.85,13.49 16.37,25.43 30.43,29.75 13.9,3.9 25.73,2.62 38.19,-5.43l9.14 -7.51c13.76,-15.66 12.31,-30.8 12.31,-53.57l0 -218.1c-3.08,-2.19 -6.96,-4.23 -10.55,-6.51 -9.48,-6.04 -21.5,-15.48 -29.11,-22.84 -38.59,-37.32 -58.32,-94.6 -48.91,-153.04 10.04,-62.35 53.98,-110.85 109.97,-132.24 6.31,-2.41 24.28,-7.07 25.6,-8.2l9.82 -15.3c1.3,-2.17 2.2,-3.26 3.64,-5.37l30.38 -37.59 30.35 -28.6c2.06,-1.92 2.44,-2.42 4.82,-4.19 3.43,-2.54 6.03,-4.7 9.41,-7.23l20.11 -13.87c1.16,-0.82 1.45,-0.93 2.53,-1.63 1.14,-0.74 1.21,-0.93 2.43,-1.73 1.8,-1.18 3.82,-2.23 5.72,-3.29 10.54,-5.89 22.7,-12.73 33.89,-17.42 4.1,-1.72 8.31,-3.69 12.19,-5.15l44.7 -14.25c2.72,-0.63 4.84,-0.84 7.46,-1.55l28.95 -5.03c5.28,-0.51 9.69,-0.93 14.98,-1.66 4.34,-0.6 11.68,-0.56 16.26,-1.07 17.46,-1.96 59.36,2.56 78.55,6.55 4.92,1.02 9.21,2.67 14.49,3.06l0.15 -27.86 0.01 -10.31c-0.43,-9.83 -0.36,-21.35 -0.05,-31.21 0.14,-4.56 0.87,-8.32 2.33,-12.59 1.24,-3.64 4.13,-8.23 4.54,-10.95 -17.26,-3.39 -47.6,-7.88 -65.46,-8.32l-24.27 -0.69c-10.94,0 -36.88,1.09 -46.68,2.56 -4.31,0.65 -6.64,1.28 -10.86,1.63 -14.62,1.19 -46.61,8.51 -61.3,12.9 -1.91,0.57 -3.19,1.09 -4.74,1.5 -14.27,3.82 -35.04,12.29 -49.01,18.26 -1.9,0.81 -2.22,1.26 -4.18,2.06 -7.42,3.01 -34.87,16.99 -41.09,21.32l-29.68 19.56c-6.21,3.97 -18.36,14.13 -24.22,18.77 -14.18,11.23 -27.1,24.39 -39.6,37.38l-47.64 61.24c-2.66,4.85 -5.51,8.2 -9.49,15.48 -1.54,2.82 -3.11,5.35 -4.58,7.9l-15.2 30.57c-0.85,1.88 -0.35,0.67 -1.19,2.28l-3.83 8.65c-1.77,4.31 -9.62,23.41 -9.64,27.12 -3.16,-0.5 -10.18,-6.38 -16.34,-10 -6,-3.53 -19.15,-10.58 -25.35,-12.8 -7.46,-2.67 -22.9,-7.67 -30.02,-8.82 -15.03,-2.43 -32.77,-4.92 -48.07,-2.87l-32.86 5.97c-3.9,0.84 -6.04,2.76 -10.31,2.85z"/>
   <path class="fil3" d="M555.67 563.87c-0.68,3.08 -5.51,7.29 -9.08,11.92 -3.07,3.98 -5.77,7.62 -8.62,12.13 -31.17,49.38 -37.39,107.83 -14.02,162.17 4.29,9.98 8.96,18.19 14.29,26.61 4.27,6.75 17.03,21.78 17.44,23.64 1.74,0.54 1.92,1.58 4.23,3.9l3.79 3.84c1.62,1.57 2.69,2.09 4.44,3.88 1.87,1.89 2.41,2.21 4.46,3.86 1.57,1.26 2.67,2.17 4.21,3.42l2.84 2.01c0.12,0.09 0.28,0.21 0.4,0.29 7.61,5.65 18.81,12.97 27.25,16.44 2.7,1.11 3.05,1.69 5.54,2.79 1.9,0.83 3.51,1.57 5.34,2.29 1.51,0.59 1.77,0.52 3.17,0.99 2.05,0.69 1.27,0.53 2.93,1.23 2.17,0.93 3.98,1.21 6.29,2.03l19.26 5.01c2.24,0.3 5.1,0.45 7.39,0.93 1.46,0.31 1.76,0.7 3.18,0.98 1.45,0.29 2.44,0.14 3.9,0.26 14.29,1.12 24.29,1.14 38.9,-0.07l51.03 -14.15 26.24 -14.68c12.89,-8.75 23.89,-19.37 34.22,-30.97 5.09,-5.71 13.46,-17.12 17.14,-23.77 2.63,-4.75 2.68,-3.83 5.67,-10.28l5.36 -11.28c4.19,-11.23 7.24,-18.71 9.62,-31.3 2.24,-11.86 3.29,-16.47 3.29,-29.22 -1.46,2.37 -2.68,16.87 -14.95,27.26 -7.11,6.02 -17.34,11.78 -30.83,11.74 -20.06,-0.06 -36.81,-13.11 -42.95,-30.79 -0.46,-1.32 -0.87,-2.44 -1.3,-4.06l-1.54 -4.38c-2.49,23.64 -13.43,42.24 -25.5,52.98 -12.97,11.54 -32.2,22.71 -57.7,21.91 -43.7,-1.38 -78.41,-35.52 -79.47,-79.6 -1.7,-70.86 82.06,-109.16 135.31,-62.78 24.99,21.77 24.51,46.04 27.35,51.87l0.28 -143.74c-15.7,-8.51 -35.33,-15.5 -53.09,-17.9 -5.73,-0.77 -7.09,-1.99 -15.11,-2.23 -9.82,-0.29 -29,-0.58 -37.92,1.66l-32.6 7.62c-10.74,3.76 -20.53,8.66 -30.28,14.11 -1.84,1.03 -3.66,2 -5.3,3.02l-31.99 26.27c-1.19,1.31 -0.51,1.51 -2.53,2.13z"/>
   <path class="fil1" d="M483.33 741.41c-3.39,8.08 -28.36,18.88 -40.67,20.89 -9.26,1.51 -19.61,1.64 -28.98,-0 -5.12,-0.9 -19.53,-5.06 -22.25,-8.41 -24.58,-10.39 -44.14,-42.76 -43.99,-70.03 0.19,-35.18 20.48,-65.94 53.32,-77.77 1.87,-0.67 4.34,-1.29 6.33,-1.99 2.65,-0.93 3.41,-1.05 6.81,-1.51 25.79,-3.51 45.85,1.57 63.64,14.98 8.14,6.13 18.68,17.99 22.77,27.16l4.77 11.18c4.67,11.8 5.63,33.03 2.5,43.84 -0.56,1.93 -0.97,3.65 -1.58,6.05 -2.6,10.24 -14.05,30.03 -22.66,35.63zm-89.58 -229.55c-1.32,1.13 -19.29,5.78 -25.6,8.2 -55.99,21.39 -99.93,69.89 -109.97,132.24 -9.41,58.44 10.31,115.72 48.91,153.04 7.61,7.36 19.63,16.8 29.11,22.84 3.59,2.29 7.47,4.33 10.55,6.51 2.52,2.07 5.68,2.87 9.31,4.9l20.09 7.65c3.91,1.3 7.28,1.86 10.92,2.95 4.34,1.3 6.09,1.71 11.4,2.47 12.27,1.77 26.16,4.39 39.14,2.17 22.17,-4.02 23.01,-0.35 50.81,-10.61 12.98,-4.79 20.03,-8.42 31.25,-15.23 2.93,-1.78 6.91,-5.31 10.18,-6.06 1.26,-1.35 4.63,-3.94 6.38,-5.11 3.28,-2.2 3.96,-3.6 6.7,-5.79 4.17,-3.33 8.74,-9.4 12.78,-11.69 -0.41,-1.85 -13.17,-16.89 -17.44,-23.64 -5.33,-8.43 -10,-16.64 -14.29,-26.61 -23.37,-54.34 -17.15,-112.79 14.02,-162.17 2.85,-4.51 5.55,-8.15 8.62,-12.13 3.57,-4.63 8.41,-8.84 9.08,-11.92l-14.24 -12.99c-6.74,-6.56 -27.43,-20.54 -37.16,-24.56l-14.57 -6.24c-10.6,-3.93 -20.88,-7 -32.32,-8.6l-12.06 -1.81c-7.01,-0.73 -31.19,-1.21 -39.25,0.52 -4.2,0.9 -7.46,1.68 -12.34,1.68z"/>
   <path class="fil0" d="M529.83 822.93c-3.27,0.75 -7.25,4.28 -10.18,6.06 -11.22,6.81 -18.27,10.44 -31.25,15.23 -27.79,10.26 -28.64,6.59 -50.81,10.61 1.31,3.12 3.87,5.9 5.96,8.91 4.69,6.78 13.28,15.89 18.63,22.29 12.36,14.79 42.63,39.62 60.24,50.02 6.23,3.68 12.08,8.03 18.79,11.03 10.6,4.73 16.06,9.01 31.36,14.41 10.98,3.87 21.45,8.6 33.82,11.25 4.73,1.02 8.16,2.28 12.28,2.98 4.65,0.78 7.53,1.6 12.2,2.36 14.37,2.34 25.57,4.04 41.82,3.96 5.33,-0.03 8.82,1.15 13.57,0.41 4.67,-0.73 9.9,-0.32 14.89,-0.38 11.2,-0.14 41.89,-4.87 52.97,-8.06 2.37,-0.68 3.79,-0.82 6.24,-1.39l54.95 -20.64c0.97,-0.48 1.52,-0.89 2.21,-1.25l21.84 -12.14c5.34,-2.89 13.51,-8.88 18.34,-12.17 2.82,-1.92 5.79,-4.1 8.4,-6.17l4.32 -3.31c1.34,-1.05 2.96,-2.27 4.23,-3.4l44.75 -46.1c11.26,-13.7 17.83,-26.05 26.79,-40.48l7.82 -15.06c3.63,-7.27 10.76,-24.34 12.99,-32.09 0.73,-2.54 1.22,-3.12 2.08,-5.55 2.89,-8.23 6.17,-24.77 7.87,-30.27 1.31,-4.23 1.51,-8.31 2.33,-12.92 0.41,-2.32 1.02,-3.82 1.26,-6.37 0.97,-10.59 2.82,-26.03 2.82,-35.53 -2.09,1.17 -1.93,7.38 -6.34,15.29 -14.63,26.27 -50.36,31.15 -71.86,10.41 -11.94,-11.53 -12.01,-25.21 -14.04,-28.05 0,10.28 -1.97,25.87 -3.75,35.56 -0.58,3.17 -1.33,4.4 -1.98,7.73 -3.93,20.03 -16.59,49.33 -28.05,65.57 -11.85,16.8 -11.8,16.58 -26.66,32.98l-29.33 24.76c-14.72,9.78 -19.52,12.04 -34.72,19.38l-10.94 4.32c-20.74,8.83 -53.3,13.32 -75.4,13.37 -7.25,0.02 -12.21,-0.85 -18.7,-1.41 -22.67,-1.96 -38.31,-7.02 -58.71,-14.8 -1.87,-0.71 -2.23,-0.76 -3.96,-1.59 -4.82,-2.33 -8.67,-3.95 -12.98,-6.44 -2.09,-1.21 -4.24,-2.31 -6.24,-3.47l-9.58 -5.68c-1.06,-0.74 -1.89,-1.16 -2.96,-1.89l-27.44 -21.8c-3.3,-3.02 -7.42,-6.72 -9.92,-10.5z"/>
   <path class="fil2" d="M683.79 699.1c-3.8,0 -6.87,0.38 -10.12,-1.67 -10.16,-6.4 -11.35,-19.29 -3.95,-26.96 16.5,-17.1 41.45,8.34 24.42,24.42 -3.09,2.92 -5.63,4.21 -10.35,4.21zm113.64 -331.47l-0.56 0.38c-28.86,8.18 -31.15,36.85 -32.64,39.31l0.25 121.88 -0.28 143.74c-2.84,-5.83 -2.35,-30.1 -27.35,-51.87 -53.26,-46.39 -137.01,-8.08 -135.31,62.78 1.06,44.08 35.77,78.22 79.47,79.6 25.5,0.8 44.73,-10.36 57.7,-21.91 12.06,-10.73 23.01,-29.34 25.5,-52.98l1.54 4.38c0.43,1.62 0.84,2.74 1.3,4.06 6.14,17.68 22.89,30.73 42.95,30.79 13.49,0.04 23.72,-5.72 30.83,-11.74 12.27,-10.39 13.5,-24.89 14.95,-27.26l0.69 -281.26c-1.5,-4.43 -2.2,-9.21 -4.04,-13.7 -1.66,-4.07 -4.41,-8.28 -6.74,-11.28 -4.35,-5.62 -12.48,-11.9 -21.87,-14.54l-0.55 -0.38c-12.11,-1.98 -13.73,-2.02 -25.84,0.01z"/>
   <path class="fil3" d="M1241.36 745.73c-1.21,1.38 -9.13,6.53 -11.11,7.46 -0.93,0.44 -1.89,0.81 -2.86,1.3l-10.22 4.35c-4.6,1.39 -9.58,3.09 -15.36,3.36 -3.75,0.18 -5.29,0.54 -8.32,0.72 -7.17,0.43 -18.28,-1.65 -24.96,-3.48 -9.51,-2.6 -23.27,-9.89 -30.01,-16.46 -2.36,-2.3 -2.64,-2.55 -5.36,-4.61 -9.37,-5.67 -14.07,-11.35 -29.82,-11.84 -23.19,-0.72 -41.64,14.81 -46.46,36.97 -1.38,6.37 -0.96,13.13 0.44,19.21 1.45,6.31 4.14,9.54 6.15,14.64l0.51 0.92c0.35,2.45 4.17,5.39 6.93,8.15 5.97,5.97 9.89,9.11 16.87,14.34 8.52,6.38 19.88,13.54 29.41,17.75l22.89 9.01c3.97,1.48 7.85,1.88 11.98,3.28 2.79,0.95 22.74,4.31 27.53,4.37 23.01,0.28 22.8,0.32 43.24,-2.59 2.68,-0.38 4.13,-0.43 6.54,-1.09 2.01,-0.55 3.82,-1.31 6.48,-1.85 5.16,-1.03 7.79,-2.5 12.56,-3.52 1.46,-1.69 13.23,-5.98 16.07,-7.35 5.91,-2.84 10,-4.96 15.42,-8.17 17.45,-10.35 41.13,-27.15 46.2,-47.99 4.34,-17.85 -2.32,-26.91 -7.36,-37.54 -4.19,-3.11 -13.96,-19.91 -39.26,-18.71 -22.96,1.08 -31.49,17.35 -38.14,19.36z"/>
   <path class="fil2" d="M855.59 315.49l-0.03 14.3c-0.05,7.73 -0.65,62.91 0.9,65.25l37.93 26.88c10.97,9.27 14.84,12.47 25.46,23.08 2.97,2.97 5.25,5.48 8.21,8.43 10.21,10.15 20.35,24.22 28.95,35.54 4.67,6.14 13.05,19.77 17.24,27.14 1.95,3.43 5.83,9.22 7.03,13.55 2.57,-0.31 16.09,-6.98 20.41,-8.65 13.18,-5.09 33.17,-10.67 48.24,-11.03 4.45,-0.11 10.09,-0.31 14.41,0.43 4.88,0.83 8.37,2.97 11.95,3.38 -1.73,-2.86 -2.66,-5.87 -4.15,-8.87 -7.97,-16.03 -9.82,-20.21 -18.95,-36.53 -1.79,-3.21 -3.13,-5.69 -5.03,-8.84 -1.91,-3.17 -3.51,-5.29 -5.54,-8.33 -1.98,-2.97 -3.33,-5.71 -5.36,-8.51 -2.07,-2.87 -3.83,-5.16 -5.87,-8l-5.63 -8.24c-8.89,-12.15 -18.46,-21.77 -25.07,-30.41l-16.47 -17.51c-1.74,-1.52 -2.03,-1.5 -3.73,-3.21 -0.1,-0.1 -0.24,-0.25 -0.34,-0.35l-13.96 -13.09c-1.59,-1.55 -2.2,-1.74 -3.8,-3.13l-43.26 -33.03c-2.98,-1.99 -5.5,-3.54 -8.47,-5.4 -3.03,-1.9 -5.54,-3.7 -8.49,-5.38l-26.83 -14.78c-6.42,-3.06 -12.57,-6.03 -18.91,-8.7 -1.6,2.55 -0.69,19.34 -0.87,24.03z"/>
   <path class="fil2" d="M1064.48 617.94c-3.95,9.1 -10.26,16.28 -8.08,32.53 4.08,30.39 37.3,45.91 60.13,60.37l36.58 12.71c2.88,0.68 4.65,1.45 8.44,1.96 5.97,0.8 11.43,1.39 17.87,2.24 6.38,0.84 20.48,0.67 27.18,1.95 2.55,0.49 5.41,1.36 8.27,2.14 9.82,2.66 18.71,7.5 26.48,13.9 6.64,-2.01 15.17,-18.28 38.14,-19.36 25.31,-1.2 35.08,15.6 39.26,18.71 7.77,-5.86 14.34,-34.45 -0.94,-53.77 -6.13,-7.75 -20.13,-19.23 -28.61,-24.79 -6.12,-4.02 -10.12,-4.78 -10.08,-8.12 -0.75,0.56 -0.77,0.45 -1.71,0.95l-5.74 -3.94 -10.24 -4.82c-1.46,-0.76 -2.36,-0.89 -4.02,-1.52l-31.85 -9.76c-16.05,-3.7 -35.44,-2.52 -47.43,-4.58 -10.08,-1.73 -15.14,-4.27 -23.36,-7.85l-12.58 -8.43c-2.75,-0.56 -12.21,-9.73 -16.47,-12.48 -16.98,-10.98 -39.8,-8.14 -54.47,4.85 -2.49,2.2 -4.15,4.97 -6.77,7.11z"/>
   <path class="fil1" d="M891.14 675.22c1.81,-1.94 2,-5.23 2.87,-7.86 13.78,-41.75 75.11,-40.73 87.03,2.09 0.83,2.97 0.98,6.54 2.33,8.76 0.73,-2.94 0.76,-8.39 3.18,-18.22 3.37,-13.65 16.29,-34.38 26.14,-39.94 2.46,-3.9 17.34,-12.46 23.7,-13.92 3.46,-2.7 14.87,-4.5 20.72,-4.99 10.05,-2.1 13,-1.24 21.67,-6.34 12.17,-7.15 21.02,-19.63 22.48,-34.39 1.4,-14.16 -2.97,-18.95 -3.26,-24.28 -5.69,-7.96 -6.49,-13.47 -19.9,-21.24l-1.82 -1.1c-3.58,-0.41 -7.07,-2.54 -11.95,-3.38 -4.32,-0.74 -9.96,-0.53 -14.41,-0.43 -15.07,0.36 -35.07,5.94 -48.24,11.03 -4.32,1.67 -17.84,8.34 -20.41,8.65 -1.75,1.54 -2.03,2.07 -4.85,2.31 -1.51,-6.47 -11.31,-14 -16.85,-17.13 -9.05,-5.1 -17.08,-6.55 -28.2,-5.73 -15.47,1.14 -33.38,15.48 -37.79,30.87 -3.64,12.72 -2.46,16.74 -2.46,31.52l0 103.72z"/>
   <path class="fil3" d="M1098.02 536.13c0.29,5.32 4.66,10.12 3.26,24.28 -1.46,14.77 -10.31,27.24 -22.48,34.39 -8.68,5.1 -11.62,4.24 -21.67,6.34 0.96,6.02 3.66,13.39 7.36,16.8 2.62,-2.14 4.28,-4.91 6.77,-7.11 14.67,-13 37.49,-15.83 54.47,-4.85 4.26,2.75 13.72,11.92 16.47,12.48 2.51,-2.75 9.48,-6.62 13.41,-8.58 10.91,-5.45 24.02,-8.81 37.24,-8.58 8.6,0.15 20.62,2.15 28.4,5.59 29.44,13.02 24.44,20.56 44.68,28.85l4.57 1.17c12.26,0.93 17.64,2.11 28.87,-2.6 7.89,-3.31 14.2,-8.66 18.66,-14.57 10.94,-14.49 12.82,-32.91 3.15,-50.64l-0.86 -0.81c-7.76,-9.03 -1.07,-2.74 -13.01,-14.17 -3.49,-3.34 -7.96,-6.46 -9.23,-8.42 -14.86,-9.48 -23.91,-17.44 -42.67,-24.36 -4.15,-1.53 -4.86,-1 -6.54,-3.23 -1.75,-0.16 -16.99,-5.26 -28.42,-6.81l-10.15 -1.64c-19.13,-2.09 -35.84,-0.62 -53.84,2.59 -9.16,1.63 -18.36,5.18 -27.16,8.21 -7.84,2.69 -12.9,5.76 -20.09,9.04 -2.27,1.04 -2.07,1.33 -3.88,2.36 -2.65,1.52 -4.85,2.7 -7.29,4.28z"/>
   <path class="fil0" d="M391.43 753.89c2.72,3.35 17.13,7.51 22.25,8.41 9.37,1.64 19.72,1.51 28.98,0 12.31,-2.01 37.28,-12.82 40.67,-20.89 -1.22,-2.69 -1.31,-4.99 -2.18,-8.19 -2.24,-8.22 -1.99,-9.25 -3.62,-17.18 -3.06,-14.9 -1.42,-35.58 -4.83,-47.18 -1.9,-6.47 -3.6,-8.55 -7.04,-13.76 -2.91,-4.41 -5.73,-7.3 -10.33,-10.48 -29.61,-20.46 -69.74,-2.6 -72.59,35.04 -0.81,10.63 0.67,20.73 0.77,29.16l2.2 18.6c0.32,3.06 1.26,6.2 1.78,8.63l3.95 17.84z"/>
   <path class="fil0" d="M1036.4 606.13c-2.03,5.55 -4.59,10.09 -6.68,16.02 -4.47,12.7 -9.32,31.16 -10.14,45.03 -0.2,3.37 0.37,8.77 -1.53,10.4 0,13.69 2.28,33.19 5.39,45.95 0.73,3.01 1.51,5.2 2.23,8.17l6.75 18.91c8.75,18.76 13.38,26.06 25.55,41.72 1.02,1.31 0.99,1.45 2.17,2.68l3.35 2.33c-0.45,1.18 -0.71,0.92 0.51,0.92l-0.51 -0.92c-2.01,-5.1 -4.69,-8.33 -6.15,-14.64 -1.4,-6.08 -1.83,-12.84 -0.44,-19.21 4.82,-22.17 23.27,-37.69 46.46,-36.97 15.75,0.49 20.45,6.17 29.82,11.84 -0.11,-0.34 -8.23,-9.91 -11.58,-15.9l-2.91 -5.41c-1.96,-4.18 -2.07,-2.23 -2.16,-6.22 -22.83,-14.46 -56.05,-29.98 -60.13,-60.37 -2.18,-16.25 4.13,-23.43 8.08,-32.53 -3.7,-3.41 -6.4,-10.78 -7.36,-16.8 -5.85,0.49 -17.26,2.28 -20.72,4.99z"/>
   <path class="fil3" d="M891.14 675.22l0 11.61c2.03,2.84 2.09,16.52 14.04,28.05 21.5,20.74 57.23,15.86 71.86,-10.41 4.41,-7.91 4.24,-14.12 6.34,-15.29l0 -10.98c-1.35,-2.22 -1.5,-5.79 -2.33,-8.76 -11.92,-42.82 -73.25,-43.84 -87.03,-2.09 -0.87,2.64 -1.07,5.93 -2.87,7.86z"/>
   <path class="fil0" d="M764.61 318.34l-0.01 10.31c4.28,12.37 4.35,21.44 21.05,32.77 4.72,3.2 10.1,4.46 11.78,6.21l-0.56 0.38 0.56 -0.38c12.12,-2.02 13.73,-1.99 25.84,-0.01l0.55 0.38 -0.55 -0.38 2.93 -1.81c16.96,-6.53 25.08,-18.17 29.37,-36.03l0.03 -14.3c-3.89,-10.21 -4.04,-17.32 -15.56,-27.15 -17.92,-15.29 -43.97,-14.47 -61.55,1.99 -8.6,8.06 -10.13,14.42 -13.87,28.01z"/>
   <path class="fil3" d="M771.43 263.59c-0.4,2.73 -3.29,7.31 -4.54,10.95 -1.46,4.28 -2.19,8.04 -2.33,12.59 -0.31,9.86 -0.38,21.38 0.05,31.21 3.74,-13.6 5.27,-19.96 13.87,-28.01 17.58,-16.46 43.63,-17.28 61.55,-1.99 11.52,9.83 11.67,16.94 15.56,27.15 0.18,-4.69 -0.73,-21.48 0.87,-24.03 -0.93,-12.03 -1.9,-19.87 -8.9,-29.36 -4.3,-5.82 -6.85,-8.02 -12.55,-11.72 -8,-5.2 -15.89,-7.76 -26.42,-7.62 -11.34,0.16 -25.82,6.75 -32.88,15.67 -1.39,1.75 -2.89,3.93 -4.28,5.17z"/>
   <path class="fil3" d="M764.45 356.52l-0.22 50.8c1.49,-2.46 3.79,-31.13 32.64,-39.31l0.56 -0.38c-1.68,-1.75 -7.06,-3.01 -11.78,-6.21 -16.7,-11.32 -16.77,-20.4 -21.05,-32.77l-0.15 27.86z"/>
   <path class="fil3" d="M823.27 367.63l0.55 0.38c9.39,2.64 17.52,8.92 21.87,14.54 2.32,3 5.08,7.21 6.74,11.28 1.83,4.49 2.54,9.27 4.04,13.7l0 -12.49c-1.55,-2.34 -0.95,-57.52 -0.9,-65.25 -4.28,17.86 -12.4,29.5 -29.37,36.03l-2.93 1.81z"/>
   <path class="fil2" d="M1012.7 620.04l3.92 27.09c0.72,10.29 1.43,19.51 1.43,30.45 1.9,-1.63 1.34,-7.03 1.53,-10.4 0.82,-13.86 5.66,-32.32 10.14,-45.03 2.09,-5.94 4.65,-10.48 6.68,-16.02 -6.36,1.45 -21.24,10.02 -23.7,13.92z"/>
   <path class="fil4" d="M1321.16 569.08c-1.56,-3.5 -4.79,-7.23 -7.22,-9.83 -1.24,-1.33 -1.94,-1.53 -3.31,-2.93 -2.54,-2.59 -3.04,-2.86 -5.81,-5.32 -0.59,-0.52 -0.87,-0.8 -1.42,-1.29l-5.34 -4.01c1.27,1.96 5.74,5.07 9.23,8.42 11.94,11.42 5.25,5.13 13.01,14.17l0.86 0.81z"/>
  </g>
 </g>
</svg>
